<?xml version="1.0" encoding="utf-8"?>
<svg width="162" height="162" viewBox="0 0 162 162" fill="none" xmlns="http://www.w3.org/2000/svg">
  <g>
    <g transform="translate(13.5 13.5)">
      <path d="M3.48998 0.768768L3.41573 0.782272L2.93649 1.01852L2.80148 1.04552L2.70698 1.01852C2.70698 1.01852 2.22773 0.782272 2.22773 0.782272C2.15573 0.759781 2.10173 0.771027 2.06573 0.816025C2.06573 0.816025 2.03873 0.883514 2.03873 0.883514L1.92398 3.77252L1.95773 3.90753L2.02523 3.99529L2.72723 4.49478L2.82848 4.52177L2.90948 4.49478L3.61149 3.99529L3.69249 3.88727L3.71948 3.77252C3.71948 3.77252 3.60474 0.890274 3.60474 0.890274C3.58673 0.818253 3.54848 0.777771 3.48998 0.768768M5.2788 0.00617981L5.19106 0.0196838L3.94231 0.647446L3.8748 0.714935L3.85455 0.789185L3.97605 3.6917L4.0098 3.77269L4.0638 3.81995C4.0638 3.81995 5.42056 4.44769 5.42056 4.44769C5.50605 4.47018 5.5713 4.45219 5.6163 4.39369C5.6163 4.39369 5.6433 4.29919 5.6433 4.29919C5.6433 4.29919 5.4138 0.154694 5.4138 0.154694C5.3913 0.0737 5.3463 0.0241852 5.27879 0.00619507M0.452255 0.019577C0.390457 -0.0178986 0.31012 -4.57764e-05 0.269997 0.0600739C0.269997 0.0600739 0.2295 0.154572 0.2295 0.154572C0.2295 0.154572 0 4.29909 0 4.29909C0.00450134 4.38008 0.0427475 4.43408 0.114754 4.46109C0.114754 4.46109 0.216003 4.44757 0.216003 4.44757L1.57275 3.81982L1.64026 3.76582L1.66725 3.69157L1.78201 0.789078L1.76176 0.708084L1.69425 0.640579C1.69425 0.640579 0.452255 0.019577 0.452255 0.019577Z" transform="translate(68.013 142.723)" />
      <path d="M67.5 0C104.78 0 135 30.2198 135 67.5C135 104.78 104.78 135 67.5 135C30.2198 135 0 104.78 0 67.5C0 30.2197 30.2198 0 67.5 0C67.5 0 67.5 0 67.5 0ZM67.5 13.5C37.6766 13.5 13.5 37.6766 13.5 67.5C13.5 97.3234 37.6766 121.5 67.5 121.5C97.3234 121.5 121.5 97.3234 121.5 67.5C121.5 37.6766 97.3234 13.5 67.5 13.5C67.5 13.5 67.5 13.5 67.5 13.5Z" fill="#B3DCFF" fill-rule="evenodd" />
      <path d="M6.70886 0C10.1068 0 12.9225 2.20725 13.4409 5.09744L13.4409 47.2394C12.4596 47.7267 11.334 48 10.1514 48L6.84387 48C3.07861 48 0.0263672 45.2869 0.0263672 41.94L0.0263672 12L0 12L0 0L6.70886 0L6.70886 0Z" fill="#FFFFFF" fill-rule="evenodd" transform="translate(60.724 56)" />
      <path d="M6.75 0C10.4779 0 13.5 3.02208 13.5 6.75C13.5 10.4779 10.4779 13.5 6.75 13.5C3.02208 13.5 0 10.4779 0 6.75C0 3.02208 3.02208 0 6.75 0C6.75 0 6.75 0 6.75 0Z" fill="#FFFFFF" fill-rule="evenodd" transform="translate(60.75 33.75)" />
    </g>
  </g>
</svg>