<?xml version="1.0" encoding="utf-8"?>
<svg width="162" height="162" viewBox="0 0 162 162" fill="none" xmlns="http://www.w3.org/2000/svg">
  <g>
    <g transform="translate(16.2 11.7)">
      <g>
        <path d="M64.7781 0C36.7599 0 14.0466 22.7133 14.0466 50.7316C14.0466 50.7316 14.0466 76.3003 14.0466 76.3003C14.0477 77.4243 13.7872 78.5334 13.2857 79.5396C13.2857 79.5396 0.842023 104.42 0.842023 104.42C-0.394028 106.891 -0.262085 109.827 1.19072 112.177C2.64353 114.528 5.20998 115.958 7.97329 115.958C7.97329 115.958 121.583 115.958 121.583 115.958C124.346 115.958 126.913 114.528 128.365 112.177C129.818 109.827 129.95 106.892 128.714 104.42C128.714 104.42 116.278 79.5399 116.278 79.5399C115.774 78.5343 115.511 77.4252 115.51 76.3003C115.51 76.3003 115.51 50.7316 115.51 50.7316C115.51 22.7133 92.7964 0 64.7781 0C64.7781 0 64.7781 0 64.7781 0ZM64.7781 137.7C55.56 137.705 47.3408 131.896 44.2681 123.205C44.2681 123.205 85.2882 123.205 85.2882 123.205C82.2155 131.896 73.9963 137.705 64.7782 137.7C64.7782 137.7 64.7781 137.7 64.7781 137.7Z" />
        <path d="M80.5297 130.958C82.6024 128.784 84.243 126.161 85.2882 123.205L44.2681 123.205C45.3132 126.161 46.9538 128.784 49.0266 130.958C53.0477 135.175 58.6955 137.703 64.7781 137.7C70.8608 137.703 76.5085 135.175 80.5297 130.958ZM103.76 115.958L121.583 115.958C124.346 115.958 126.913 114.528 128.365 112.177C129.818 109.827 129.95 106.892 128.714 104.42L116.278 79.5399C115.774 78.5343 115.511 77.4252 115.51 76.3003L115.51 50.7316C115.51 22.7133 92.7964 0 64.7781 0C36.7599 0 14.0466 22.7133 14.0466 50.7316L14.0466 76.3003C14.0477 77.4243 13.7872 78.5334 13.2857 79.5396L0.842023 104.42C-0.394028 106.891 -0.262085 109.827 1.19072 112.177C2.64353 114.528 5.20998 115.958 7.97329 115.958L103.76 115.958ZM39.5121 25.4655Q49.9776 15 64.7781 15Q79.5786 15 90.0441 25.4655Q100.51 35.9311 100.51 50.7316L100.51 76.3164Q100.515 81.567 102.861 86.2465L110.214 100.958L19.345 100.958L26.711 86.23Q29.0517 81.5331 29.0466 76.3003L29.0466 50.7316Q29.0466 35.9311 39.5121 25.4655Z" fill="#B3DCFF" fill-rule="evenodd" />
      </g>
    </g>
    <g transform="translate(59 59)">
      <g transform="translate(8.583 8.583)">
        <path d="M2.22293 0.488846L2.17142 0.497437L1.86672 0.647644L1.78088 0.66481L1.7208 0.647644C1.7208 0.647644 1.41609 0.493149 1.41609 0.493149C1.37031 0.481705 1.33598 0.490288 1.31309 0.518898C1.31309 0.518898 1.29593 0.561813 1.29593 0.561813L1.22297 2.39865L1.24442 2.48448L1.28734 2.54028L1.73367 2.85786L1.79805 2.87502L1.84955 2.85786L2.29589 2.54028L2.34739 2.4716L2.36455 2.39865C2.36455 2.39865 2.29159 0.566109 2.29159 0.566109C2.28015 0.520325 2.25726 0.494576 2.22293 0.488853M3.35603 0.00384521L3.29594 0.0124359L2.50628 0.41156L2.46336 0.454483L2.45048 0.501686L2.52773 2.34711L2.54919 2.39861L2.58352 2.43293C2.58352 2.43293 3.44615 2.82776 3.44615 2.82776C3.50051 2.84206 3.542 2.83062 3.57061 2.79343C3.57061 2.79343 3.58778 2.73335 3.58778 2.73335C3.58778 2.73335 3.44186 0.098259 3.44186 0.098259C3.42755 0.0438995 3.39894 0.0124359 3.35602 0.00384521M0.287544 0.0124435C0.248253 -0.0113754 0.197178 -2.28882e-05 0.171665 0.0381927C0.171665 0.0381927 0.14592 0.0982742 0.14592 0.0982742C0.14592 0.0982742 0 2.73336 0 2.73336C0.00286102 2.78486 0.0271797 2.8192 0.0729599 2.83636C0.0729599 2.83636 0.137337 2.82778 0.137337 2.82778L0.999962 2.42865L1.04288 2.39432L1.05576 2.34711L1.133 0.501694L1.12013 0.450195L1.07721 0.40728C1.07721 0.40728 0.287544 0.0124435 0.287544 0.0124435Z" transform="translate(43.243 90.743)" />
        <path d="M34.3333 4.29167C34.3333 1.92145 32.4119 0 30.0417 0C27.6714 0 25.75 1.92145 25.75 4.29167C25.75 4.29167 25.75 12.875 25.75 12.875C25.75 15.2452 27.6714 17.1667 30.0417 17.1667C32.4119 17.1667 34.3333 15.2452 34.3333 12.875C34.3333 12.875 34.3333 4.29167 34.3333 4.29167ZM14.8664 8.79794C13.7888 7.68229 12.1932 7.23486 10.6927 7.62761C9.19218 8.02037 8.02037 9.19219 7.62761 10.6927C7.23486 12.1932 7.68229 13.7888 8.79794 14.8664C8.79794 14.8664 14.8664 20.9434 14.8664 20.9434C15.952 22.029 17.5345 22.4529 19.0175 22.0554C20.5005 21.6578 21.6587 20.4992 22.0558 19.0161C22.4528 17.5329 22.0284 15.9506 20.9423 14.8653C20.9423 14.8653 14.8664 8.79794 14.8664 8.79794ZM33.4364 26.6512C29.2392 25.2521 25.2522 29.2391 26.647 33.4321C26.647 33.4321 41.8095 78.9152 41.8095 78.9152C43.3416 83.5158 49.7061 83.8849 51.7618 79.4902C51.7618 79.4902 60.5812 60.5812 60.5812 60.5812C60.5812 60.5812 79.4903 51.7618 79.4903 51.7618C83.885 49.7104 83.5159 43.3415 78.9152 41.8094C78.9152 41.8094 33.4364 26.6512 33.4364 26.6512ZM51.2855 8.79799C52.9609 10.4739 52.9609 13.1905 51.2855 14.8664C51.2855 14.8664 45.2171 20.9434 45.2171 20.9434C44.1324 22.0288 42.551 22.4529 41.0688 22.056C39.5865 21.659 38.4288 20.5012 38.0318 19.019C37.6348 17.5368 38.059 15.9554 39.1444 14.8707C39.1444 14.8707 45.2171 8.80228 45.2171 8.80228C46.893 7.12689 49.6096 7.12689 51.2855 8.80228C51.2855 8.80228 51.2855 8.79799 51.2855 8.79799ZM0 30.0417C0 27.6714 1.92145 25.75 4.29167 25.75C4.29167 25.75 12.875 25.75 12.875 25.75C15.2452 25.75 17.1667 27.6714 17.1667 30.0417C17.1667 32.4119 15.2452 34.3333 12.875 34.3333C12.875 34.3333 4.29167 34.3333 4.29167 34.3333C1.92145 34.3333 0 32.4119 0 30.0417C0 30.0417 0 30.0417 0 30.0417ZM20.939 45.2171C22.0244 44.1324 22.4486 42.551 22.0516 41.0688C21.6546 39.5865 20.4969 38.4288 19.0146 38.0318C17.5324 37.6348 15.951 38.059 14.8663 39.1444C14.8663 39.1444 8.79791 45.2171 8.79791 45.2171C7.68228 46.2946 7.23486 47.8902 7.62762 49.3907C8.02037 50.8912 9.19218 52.063 10.6927 52.4558C12.1931 52.8485 13.7888 52.4011 14.8663 51.2855C14.8663 51.2855 20.939 45.2171 20.939 45.2171Z" fill="#FFFFFF" fill-rule="evenodd" />
      </g>
    </g>
  </g>
</svg>