<?xml version="1.0" encoding="utf-8"?>
<svg width="162" height="162" viewBox="0 0 162 162" fill="none" xmlns="http://www.w3.org/2000/svg">
  <g>
    <g transform="translate(16.2 8.107)">
      <path d="M66.1689 0.106313C66.1689 0.106313 125.736 9.17831 125.736 9.17831C127.96 9.51446 129.6 11.4261 129.6 13.6738C129.6 13.6738 129.6 88.7365 129.6 88.7365C129.6 111.145 109.054 129.957 67.959 145.181C65.9206 145.936 63.6794 145.936 61.641 145.181C20.5457 129.957 0 111.145 0 88.7365C0 88.7365 0 13.6738 0 13.6738C0 11.4261 1.64025 9.51446 3.8637 9.17831C3.8637 9.17831 63.4311 0.106313 63.4311 0.106313C64.3383 -0.0354376 65.2617 -0.0354376 66.1689 0.106313C66.1689 0.106313 66.1689 0.106313 66.1689 0.106313Z" />
      <path d="M125.736 9.17831L66.1689 0.106313C65.2617 -0.0354376 64.3383 -0.0354376 63.4311 0.106313L3.8637 9.17831C1.64025 9.51446 0 11.4261 0 13.6738L0 88.7365C0 111.145 20.5457 129.957 61.641 145.181C63.6794 145.936 65.9206 145.936 67.959 145.181C109.054 129.957 129.6 111.145 129.6 88.7365L129.6 13.6738C129.6 11.4261 127.96 9.51446 125.736 9.17831ZM64.8 15.0708L15 22.6552L15 88.7365Q15 111.444 64.8 130.346Q114.6 111.444 114.6 88.7365L114.6 22.6552L64.8 15.0708Z" fill="#B3DCFF" fill-rule="evenodd" />
    </g>
    <path d="M48.6 0L0 7.4034C0 7.4034 0 72.4545 0 72.4545C0 85.9451 14.8959 99.9054 48.6 112.78C82.3041 99.9054 97.2 85.945 97.2 72.4545C97.2 72.4545 97.2 7.4034 97.2 7.4034L48.6 0L48.6 0Z" transform="translate(32.4 24.389)" />
    <path d="M6 0C9.31416 0 12 2.68584 12 6L12 46C12 49.3142 9.31416 52 6 52L6 52C2.68584 52 0 49.3142 0 46L0 6C0 2.68584 2.68584 0 6 0Z" fill="#FFFFFF" transform="translate(75 41)" />
    <path d="M6 0C9.31416 0 12 2.68584 12 6L12 6C12 9.31416 9.31416 12 6 12L6 12C2.68584 12 0 9.31416 0 6L0 6C0 2.68584 2.68584 0 6 0Z" fill="#FFFFFF" transform="translate(75 101)" />
  </g>
</svg>