<?xml version="1.0" encoding="utf-8"?>
<svg width="162" height="162" viewBox="0 0 162 162" fill="none" xmlns="http://www.w3.org/2000/svg">
  <g>
    <g transform="translate(13.5 13.5)">
      <path d="M3.48976 0.768814L3.41551 0.782318L2.93626 1.01855L2.80126 1.04556L2.70676 1.01855C2.70676 1.01855 2.22751 0.782318 2.22751 0.782318C2.15551 0.759827 2.10151 0.771057 2.06551 0.816055C2.06551 0.816055 2.03851 0.88356 2.03851 0.88356L1.92376 3.77255L1.9575 3.90756L2.02501 3.99532L2.72701 4.49481L2.82826 4.5218L2.90926 4.49481L3.61127 3.99532L3.69227 3.8873L3.71926 3.77255C3.71926 3.77255 3.60452 0.890305 3.60452 0.890305C3.58651 0.818298 3.54826 0.777802 3.48976 0.768814M5.27851 0.00605774L5.19077 0.0195618L3.94201 0.647308L3.87451 0.714813L3.85426 0.789063L3.97575 3.69156L4.00951 3.77255L4.06351 3.81981C4.06351 3.81981 5.42027 4.44756 5.42027 4.44756C5.50576 4.47005 5.57101 4.45206 5.61601 4.39355C5.61601 4.39355 5.64301 4.29906 5.64301 4.29906C5.64301 4.29906 5.41351 0.154556 5.41351 0.154556C5.39101 0.0735626 5.34601 0.0240631 5.27851 0.00605774M0.452255 0.0195618C0.390457 -0.0178986 0.310127 -4.57764e-05 0.269997 0.0600739C0.269997 0.0600739 0.2295 0.154572 0.2295 0.154572C0.2295 0.154572 0 4.29907 0 4.29907C0.00450134 4.38007 0.0427475 4.43408 0.114754 4.46107C0.114754 4.46107 0.216003 4.44757 0.216003 4.44757L1.57275 3.81982L1.64026 3.76582L1.66726 3.69157L1.78201 0.789078L1.76176 0.708084L1.69425 0.640579C1.69425 0.640579 0.452255 0.0195618 0.452255 0.0195618Z" transform="translate(68.013 142.723)" />
      <path d="M57.375 13.5C53.9315 13.4994 50.7332 15.2818 48.9223 18.2106C47.1113 21.1395 46.946 24.7972 48.4852 27.8775C48.4852 27.8775 49.5855 30.0713 49.5855 30.0713C50.7053 32.3061 50.5863 34.9618 49.271 37.0875C47.9557 39.2132 45.6322 40.5048 43.1325 40.5C43.1325 40.5 20.25 40.5 20.25 40.5C16.5221 40.5 13.5 43.5221 13.5 47.25C13.5 47.25 13.5 55.3095 13.5 55.3095C25.785 54.5738 37.125 64.2938 37.125 77.625C37.125 90.9563 25.785 100.676 13.5 99.9405C13.5 99.9405 13.5 114.75 13.5 114.75C13.5 118.478 16.5221 121.5 20.25 121.5C20.25 121.5 35.0595 121.5 35.0595 121.5C34.3237 109.215 44.0438 97.875 57.375 97.875C70.7062 97.875 80.4262 109.215 79.6905 121.5C79.6905 121.5 87.75 121.5 87.75 121.5C91.4779 121.5 94.5 118.478 94.5 114.75C94.5 114.75 94.5 91.8675 94.5 91.8675C94.5 86.508 100.136 83.025 104.929 85.4145C104.929 85.4145 107.116 86.5147 107.116 86.5147C111.295 88.6011 116.363 87.4949 119.293 83.8568C122.222 80.2187 122.222 75.0313 119.293 71.3932C116.363 67.7551 111.295 66.6489 107.116 68.7353C107.116 68.7353 104.929 69.8355 104.929 69.8355C102.694 70.9553 100.038 70.8363 97.9125 69.521C95.7868 68.2057 94.4952 65.8822 94.5 63.3825C94.5 63.3825 94.5 47.25 94.5 47.25C94.5 43.5221 91.4779 40.5 87.75 40.5C87.75 40.5 71.6175 40.5 71.6175 40.5C66.258 40.5 62.775 34.8638 65.1645 30.0712C65.1645 30.0712 66.2647 27.8775 66.2647 27.8775C67.804 24.7972 67.6387 21.1395 65.8277 18.2106C64.0168 15.2818 60.8185 13.4994 57.375 13.5C57.375 13.5 57.375 13.5 57.375 13.5ZM34.182 27C32.049 13.3853 42.4845 0 57.375 0C72.2655 0 82.701 13.3853 80.568 27C80.568 27 87.75 27 87.75 27C98.9338 27 108 36.0662 108 47.25C108 47.25 108 54.432 108 54.432C121.615 52.299 135 62.7345 135 77.625C135 92.5155 121.615 102.951 108 100.818C108 100.818 108 114.75 108 114.75C108 125.934 98.9338 135 87.75 135C87.75 135 71.5028 135 71.5028 135C69.0912 135.006 66.8387 133.797 65.511 131.784C64.1834 129.771 63.9592 127.224 64.9148 125.01C64.9148 125.01 65.4885 123.68 65.4885 123.68C67.0753 119.983 65.9612 115.68 62.7793 113.217C59.5974 110.754 55.1526 110.754 51.9707 113.217C48.7888 115.68 47.6747 119.983 49.2615 123.68C49.2615 123.68 49.8353 125.017 49.8353 125.017C51.8603 129.742 48.3908 135 43.2473 135C43.2473 135 20.25 135 20.25 135C9.06623 135 0 125.934 0 114.75C0 114.75 0 91.7528 0 91.7528C0 86.6093 5.25825 83.1398 9.99 85.1648C9.99 85.1648 11.3198 85.7385 11.3198 85.7385C15.0174 87.3253 19.3203 86.2112 21.7832 83.0293C24.2462 79.8474 24.2462 75.4026 21.7832 72.2207C19.3203 69.0388 15.0174 67.9247 11.3198 69.5115C11.3198 69.5115 9.98325 70.0853 9.98325 70.0853C5.25825 72.1103 0 68.6408 0 63.4973C0 63.4973 0 47.25 0 47.25C1.60933e-06 36.0662 9.06623 27 20.25 27C20.25 27 34.182 27 34.182 27Z" fill="#B3DCFF" fill-rule="evenodd" />
    </g>
    <path d="M40.5001 0C42.9854 5.24521e-06 45.0001 2.01472 45.0001 4.5C45.0001 4.5 45.0001 18 45.0001 18C45.0001 20.4853 42.9854 22.5 40.5001 22.5C38.0148 22.5 36.0001 20.4853 36.0001 18C36.0001 18 36.0001 4.5 36.0001 4.5C36.0001 2.01472 38.0148 0 40.5001 0C40.5001 0 40.5001 0 40.5001 0ZM69.1384 11.8617C70.8951 13.619 70.8951 16.4674 69.1384 18.2247C69.1384 18.2247 59.5939 27.7737 59.5939 27.7737C57.8355 29.532 54.9847 29.532 53.2264 27.7737C51.468 26.0154 51.468 23.1645 53.2264 21.4062C53.2264 21.4062 62.7754 11.8617 62.7754 11.8617C64.5326 10.105 67.3811 10.105 69.1384 11.8617C69.1384 11.8617 69.1384 11.8617 69.1384 11.8617ZM81 40.5001C81 42.9854 78.9854 45.0001 76.5001 45.0001C76.5001 45.0001 63.0001 45.0001 63.0001 45.0001C60.5148 45.0001 58.5001 42.9854 58.5001 40.5001C58.5001 38.0149 60.5148 36.0001 63.0001 36.0001C63.0001 36.0001 76.5001 36.0001 76.5001 36.0001C78.9854 36.0001 81.0001 38.0149 81.0001 40.5001C81.0001 40.5001 81 40.5001 81 40.5001ZM69.1384 69.1377C67.3811 70.8944 64.5326 70.8944 62.7754 69.1377C62.7754 69.1377 53.2264 59.5932 53.2264 59.5932C51.468 57.8349 51.468 54.9841 53.2264 53.2257C54.9847 51.4674 57.8355 51.4674 59.5939 53.2257C59.5939 53.2257 69.1384 62.7747 69.1384 62.7747C70.8951 64.532 70.8951 67.3805 69.1384 69.1377C69.1384 69.1377 69.1384 69.1377 69.1384 69.1377ZM40.5001 80.9997C38.0148 80.9997 36.0001 78.9849 36.0001 76.4997C36.0001 76.4997 36.0001 62.9997 36.0001 62.9997C36.0022 60.5159 38.0163 58.5035 40.5001 58.5035C42.9839 58.5035 44.998 60.5159 45.0001 62.9997C45.0001 62.9997 45.0001 76.4997 45.0001 76.4997C45.0001 78.985 42.9854 80.9997 40.5001 80.9997C40.5001 80.9997 40.5001 80.9997 40.5001 80.9997ZM11.8624 69.1377C10.1057 67.3805 10.1057 64.532 11.8624 62.7747C11.8624 62.7747 21.4069 53.2257 21.4069 53.2257C23.1652 51.4674 26.016 51.4674 27.7744 53.2257C29.5327 54.9841 29.5327 57.8349 27.7744 59.5932C27.7744 59.5932 18.2254 69.1377 18.2254 69.1377C16.4681 70.8944 13.6196 70.8944 11.8624 69.1377C11.8624 69.1377 11.8624 69.1377 11.8624 69.1377ZM7.62939e-05 40.5001C7.62939e-05 38.0149 2.01479 36.0001 4.50007 36.0001C4.50007 36.0001 18.0001 36.0001 18.0001 36.0001C20.4838 36.0023 22.4962 38.0164 22.4962 40.5002C22.4962 42.984 20.4838 44.9981 18 45.0001C18 45.0001 4.49999 45.0001 4.49999 45.0001C2.01472 45.0001 0 42.9854 0 40.5001C0 40.5001 7.62939e-05 40.5001 7.62939e-05 40.5001ZM11.8624 11.8617C13.6196 10.105 16.4681 10.105 18.2254 11.8617C18.2254 11.8617 27.7744 21.4062 27.7744 21.4062C29.5327 23.1645 29.5327 26.0154 27.7744 27.7737C26.016 29.532 23.1652 29.532 21.4069 27.7737C21.4069 27.7737 11.8624 18.2247 11.8624 18.2247C10.1057 16.4674 10.1057 13.6189 11.8624 11.8617C11.8624 11.8617 11.8624 11.8617 11.8624 11.8617Z" fill="#FFFFFF" transform="translate(72 6)" />
  </g>
</svg>